DBRep_DrawableShape

CASCADE Topology V3, (c) Open Cascade
Locations 12
1
              1              -0               0              -0 
              0               1               0               0 
             -0               0               1              -0 
1
              1              -0               0              -0 
              0               1               0               0 
             -0               0               1              -0 
2  1 1 2 -1 0
2  2 -1 0
1
              1              -0               0              -0 
              0               1               0               0 
             -0               0               1              -0 
2  2 1 5 -1 0
2  5 -1 0
1
              1              -0               0              -0 
              0               1               0               0 
             -0               0               1              -0 
2  2 1 8 -1 0
2  8 -1 0
2  8 1 5 -1 0
2  5 1 8 -1 0
Curve2ds 136
1 0 0 1 0 
1 0 0 1 0 
1 6 0 0 -1 
1 0 0 0 1 
1 0 -50 1 0 
1 0 0 1 0 
1 0 0 0 -1 
1 0 0 0 1 
1 0 0 0 1 
1 0 0 1 0 
1 0 0 1 0 
1 0 80 1 0 
1 6 0 0 1 
1 0 0 1 0 
1 6 0 0 1 
1 0 50 1 0 
1 6 0 0 -1 
1 80 0 0 1 
1 0 0 0 -1 
1 0 0 0 1 
1 10 6 0 1 
1 0 0 0 1 
1 0 0 1 0 
1 10 6 1 0 
1 0 0 0 -1 
1 55 0 0 1 
1 65 6 0 1 
1 0 -30 1 0 
1 5 -18 0 1 
1 45 10 1 0 
1 30 0 0 -1 
1 0 0 0 -1 
1 75 40 0 -1 
1 0 0 1 0 
1 5 -18 0 1 
1 45 40 1 0 
1 0 0 0 1 
1 0 38 1 0 
1 10 44 1 0 
1 0 0 0 1 
1 0 50 1 0 
1 0 -50 1 0 
1 0 80 1 0 
1 0 0 0 -1 
1 80 0 0 1 
1 0 0 1 0 
1 0 0 1 0 
1 8 0 0 -1 
1 0 0 0 1 
1 0 -38 1 0 
1 0 0 1 0 
1 0 0 1 0 
1 0 55 1 0 
1 8 0 0 1 
1 0 0 1 0 
1 8 0 0 -1 
1 55 0 0 1 
8 -5.5 2.5
1 2.5 -4 -1 0 
8 -5.5 2.5
1 2.5 2 1 0 
8 8.5 28.5
1 26.5 4 1 0 
8 8.5 28.5
1 -3 -26.5 0 1 
1 -0 -30 1 0 
1 -11 12 0.47058823529411764 -0.88235294117647056 
1 5 12 -1 0 
1 0 -30 1 0 
1 0 0 -0 -1 
1 16 0 0 -1 
1 5 12 -1 0 
1 0 0 1 0 
8 -5.5 2.5
1 2.5 -34 -1 0 
8 -5.5 2.5
1 2.5 2 1 0 
8 8.5 28.5
1 26.5 34 1 0 
8 8.5 28.5
1 -3 -26.5 0 1 
1 0 0 1 0 
1 -11 12 0.47058823529411764 -0.88235294117647056 
1 0 -38 1 0 
1 0 55 1 0 
1 8 0 0 1 
1 0 38 1 0 
8 -13 17
1 49.999999999999993 17 0 1 
8 -13 17
1 17.000000000000007 -17 0 1 
1 0 0 0 1 
1 0 0 1 0 
1 10 5 1 0 
1 0 0 0 -1 
1 35 0 0 1 
1 45 5 0 1 
1 0 0 0 1 
1 0 28 1 0 
1 10 33 1 0 
1 0 0 0 -1 
1 0 0 0 1 
1 10 5 0 1 
1 0 8 1 0 
1 0 0 0 1 
1 2 10 1 0 
1 0 0 0 1 
1 0 0 0 -1 
1 2 2 0 1 
1 0 0 1 0 
1 0 0 0 1 
1 2 2 1 0 
1 0 0 0 -1 
1 8 0 0 1 
1 10 2 0 1 
1 0 0 1 0 
1 0 35 1 0 
1 8 0 0 1 
1 0 0 1 0 
1 0 0 1 0 
1 0 -3 1 0 
1 8 0 0 -1 
1 0 -28 1 0 
1 0 35 1 0 
1 8 0 0 1 
1 0 -28 1 0 
1 0 0 1 0 
1 8 0 0 -1 
1 0 -8 1 0 
1 0 8 1 0 
1 0 -5 1 0 
1 2 0 0 -1 
1 8 0 0 1 
1 2 3 0 -1 
1 2 0 0 1 
1 0 8 1 0 
1 0 0 1 0 
1 0 -8 1 0 
1 0 0 1 0 
1 0 0 1 0 
1 0 0 0 1 
1 2 0 0 -1 
1 0 0 1 0 
1 0 8 1 0 
1 0 0 1 0 
1 2 0 0 1 
Curves 61
1 0 0 0 0 0 1 
1 0 0 6 -0 1 0 
1 0 50 0 0 0 1 
1 0 0 0 -0 1 0 
1 0 0 0 1 0 -0 
1 80 0 0 0 0 1 
1 0 0 6 1 0 -0 
1 0 50 6 1 0 -0 
1 80 0 6 -0 1 0 
1 10 6 6 0 1 0 
1 10 6 6 1 0 0 
1 65 6 6 0 1 0 
1 45 10 6 1 0 0 
1 75 40 6 0 -1 0 
1 45 40 6 1 0 0 
1 10 44 6 1 0 0 
1 0 50 0 1 0 -0 
1 80 50 0 0 0 1 
1 80 0 0 -0 1 0 
1 10 6 6 0 0 1 
1 10 6 14 0 1 0 
1 10 44 6 0 0 1 
1 65 6 6 0 0 1 
1 10 6 14 1 0 0 
1 65 6 14 0 1 0 
1 65 10 8.5 0 0 -1 
1 36.5 10 14 1 0 0 
1 75 10 22 -0.88235294117647056 0 -0.47058823529411764 
1 75 10 6 0 0 1 
1 75 40 22 0 -1 0 
1 75 40 6 0 0 1 
1 65 40 8.5 0 0 -1 
1 36.5 40 14 1 0 0 
1 75 40 22 -0.88235294117647056 0 -0.47058823529411764 
1 65 44 6 0 0 1 
1 10 44 14 1 0 0 
1 59.999999999999993 23 14 -0 1 0 
1 20 11 14 1 0 0 
1 55 11 14 0 1 0 
1 20 39 14 1 0 0 
1 20 11 14 0 1 0 
1 12 16 14 1 0 0 
1 12 8 14 0 1 0 
1 12 8 14 1 0 0 
1 20 8 14 0 1 0 
1 55 11 14 0 0 1 
1 20 11 22 1 0 0 
1 20 11 14 0 0 1 
1 55 11 22 0 1 0 
1 55 39 14 0 0 1 
1 20 39 22 1 0 0 
1 20 39 14 0 0 1 
1 20 11 22 0 1 0 
1 20 16 14 0 0 1 
1 20 8 16 0 1 0 
1 12 16 16 1 0 0 
1 12 16 14 0 0 1 
1 12 8 14 0 0 1 
1 12 8 16 0 1 0 
1 20 8 14 0 0 1 
1 12 8 16 1 0 0 
Polygon3D 0
PolygonOnTriangulations 0
Surfaces 29
1 0 0 0 1 0 -0 0 0 1 0 -1 0 
1 0 0 0 -0 1 0 0 0 1 1 0 -0 
1 0 0 6 0 0 1 1 0 -0 -0 1 0 
1 0 50 0 -0 1 0 0 0 1 1 0 -0 
1 0 0 0 0 0 1 1 0 -0 -0 1 0 
1 80 0 0 1 0 -0 0 0 1 0 -1 0 
1 10 6 6 1 0 0 0 0 1 0 -1 0 
1 10 6 6 0 0 1 1 0 0 0 1 0 
1 10 6 6 0 1 0 0 0 1 1 0 0 
1 65 6 6 1 0 0 0 0 1 0 -1 0 
1 45 40 6 -0 0 1 1 0 0 0 1 -0 
1 63 10 11 -0 -1 -0 0 0 -1 1 -0 0 
1 75 40 6 -1 0 0 0 0 1 0 1 -0 
1 63 40 11 -0 -1 -0 0 0 -1 1 -0 0 
1 10 44 6 0 1 0 0 0 1 1 0 0 
1 10 6 14 0 0 1 1 0 0 0 1 0 
1 75 40 22 0.47058823529411764 0 -0.88235294117647056 -0.88235294117647056 0 -0.47058823529411764 0 1 0 
1 20 11 14 0 1 0 0 0 1 1 0 0 
1 20 11 14 0 0 1 1 0 0 0 1 0 
1 55 11 14 1 0 0 0 0 1 0 -1 0 
1 20 39 14 0 1 0 0 0 1 1 0 0 
1 20 11 14 1 0 0 0 0 1 0 -1 0 
1 12 8 14 0 0 1 1 0 0 0 1 0 
1 12 16 14 0 1 0 0 0 1 1 0 0 
1 12 8 14 1 0 0 0 0 1 0 -1 0 
1 12 8 14 0 1 0 0 0 1 1 0 0 
1 20 8 14 1 0 0 0 0 1 0 -1 0 
1 12 8 16 0 0 1 1 0 0 0 1 0 
1 20 11 22 0 0 1 1 0 0 0 1 0 
Triangulations 0

TShapes 165
Ve
1e-07
0 0 6
0 0

0101101
*
Ve
1e-07
0 0 0
0 0

0101101
*
Ed
 1e-07 1 1 0
1  1 0 0 6
2  1 1 0 0 6
2  2 2 0 0 6
0

0101000
-165 0 +164 0 *
Ve
1e-07
0 50 6
0 0

0101101
*
Ed
 1e-07 1 1 0
1  2 0 0 50
2  3 1 0 0 50
2  4 3 0 0 50
0

0101000
-162 0 +165 0 *
Ve
1e-07
0 50 0
0 0

0101101
*
Ed
 1e-07 1 1 0
1  3 0 0 6
2  5 1 0 0 6
2  6 4 0 0 6
0

0101000
-162 0 +160 0 *
Ed
 1e-07 1 1 0
1  4 0 0 50
2  7 1 0 0 50
2  8 5 0 0 50
0

0101000
-160 0 +164 0 *
Wi

0101100
-163 0 -161 0 +159 0 +158 0 *
Fa
0  1e-07 1 0

0101000
+157 0 *
Ve
1e-07
80 0 0
0 0

0101101
*
Ed
 1e-07 1 1 0
1  5 0 0 80
2  9 2 0 0 80
2  10 5 0 0 80
0

0101000
-155 0 +164 0 *
Ve
1e-07
80 0 6
0 0

0101101
*
Ed
 1e-07 1 1 0
1  6 0 0 6
2  11 6 0 0 6
2  12 2 0 0 6
0

0101000
-153 0 +155 0 *
Ed
 1e-07 1 1 0
1  7 0 0 80
2  13 2 0 0 80
2  14 3 0 0 80
0

0101000
-153 0 +165 0 *
Wi

0101100
-154 0 -152 0 +151 0 +163 0 *
Fa
0  1e-07 2 0

0101000
+150 0 *
Ve
1e-07
80 50 6
0 0

0101101
*
Ed
 1e-07 1 1 0
1  8 0 0 80
2  15 4 0 0 80
2  16 3 0 0 80
0

0101000
-148 0 +162 0 *
Ed
 1e-07 1 1 0
1  9 0 0 50
2  17 6 0 0 50
2  18 3 0 0 50
0

0101000
-148 0 +153 0 *
Wi

0101100
-161 1 -147 1 +151 1 +146 1 *
Ve
1e-07
10 44 6
0 0

0101101
*
Ve
1e-07
10 6 6
0 0

0101101
*
Ed
 1e-07 1 1 0
1  10 0 0 38
2  19 7 0 0 38
2  20 8 0 0 38
2  21 3 3 0 38
0

0101000
-144 4 +143 4 *
Ve
1e-07
65 6 6
0 0

0101101
*
Ed
 1e-07 1 1 0
1  11 0 0 55
2  22 9 0 0 55
2  23 8 0 0 55
2  24 3 3 0 55
0

0101000
-141 4 +143 4 *
Ve
1.5e-07
65 10 6
0 0

0101101
*
Ed
 1e-07 1 1 0
1  12 0 0 4
2  25 10 0 0 4
2  26 8 0 0 4
2  27 3 3 0 4
0

0101000
+141 4 -139 4 *
Ve
1e-07
75 10 6
0 0

0101101
*
Ed
 1e-07 1 1 0
1  13 0 20 30
2  28 11 0 20 30
2  29 12 0 20 30
2  30 3 1 20 30
0

0101000
+139 0 -137 0 *
Ve
1e-07
75 40 6
0 0

0101101
*
Ed
 1e-07 1 1 0
1  14 0 0 30
2  31 11 0 0 30
2  32 13 0 0 30
2  33 3 1 0 30
0

0101000
+135 0 -137 0 *
Ve
1.5e-07
65 40 6
0 0

0101101
*
Ed
 1e-07 1 1 0
1  15 0 20 30
2  34 11 0 20 30
2  35 14 0 20 30
2  36 3 1 20 30
0

0101000
+133 0 -135 0 *
Ve
1e-07
65 44 6
0 0

0101101
*
Ed
 1e-07 1 1 0
1  12 0 34 38
2  25 10 0 34 38
2  26 8 0 34 38
2  27 3 3 34 38
0

0101000
+133 4 -131 4 *
Ed
 1e-07 1 1 0
1  16 0 0 55
2  37 15 0 0 55
2  38 8 0 0 55
2  39 3 3 0 55
0

0101000
-131 4 +144 4 *
Wi

0101100
+142 2 -140 2 -138 2 -136 0 +134 0 +132 0 -130 2 +129 2 *
Fa
0  1e-07 3 1

0101000
+145 0 +128 0 *
Ve
1e-07
80 50 0
0 0

0101101
*
Ed
 1e-07 1 1 0
1  17 0 0 80
2  40 4 0 0 80
2  41 5 0 0 80
0

0101000
-126 0 +160 0 *
Ed
 1e-07 1 1 0
1  18 0 0 6
2  42 6 0 0 6
2  43 4 0 0 6
0

0101000
-148 0 +126 0 *
Wi

0101100
-125 0 -124 0 +147 0 +159 0 *
Fa
0  1e-07 4 0

0101000
+123 0 *
Ed
 1e-07 1 1 0
1  19 0 0 50
2  44 6 0 0 50
2  45 5 0 0 50
0

0101000
-126 0 +155 0 *
Wi

0101100
-158 0 -125 0 +121 0 +154 0 *
Fa
0  1e-07 5 0

0101000
+120 0 *
Wi

0101100
-152 0 -146 0 +124 0 +121 0 *
Fa
0  1e-07 6 0

0101000
+118 0 *
Ve
1e-07
10 6 14
0 0

0101101
*
Ed
 1e-07 1 1 0
1  20 0 0 8
2  46 7 0 0 8
2  47 9 0 0 8
0

0101000
-116 4 +143 4 *
Ve
1e-07
10 44 14
0 0

0101101
*
Ed
 1e-07 1 1 0
1  21 0 0 38
2  48 7 0 0 38
2  49 16 0 0 38
0

0101000
-114 4 +116 4 *
Ed
 1e-07 1 1 0
1  22 0 0 8
2  50 7 0 0 8
2  51 15 0 0 8
0

0101000
-114 4 +144 4 *
Wi

0101100
-115 0 -113 0 +112 0 +142 0 *
Fa
0  1e-07 7 0

0101000
+111 0 *
Ve
1e-07
65 6 14
0 0

0101101
*
Ed
 1e-07 1 1 0
1  23 0 0 8
2  52 10 0 0 8
2  53 9 0 0 8
0

0101000
-109 4 +141 4 *
Ed
 1e-07 1 1 0
1  24 0 0 55
2  54 9 0 0 55
2  55 16 0 0 55
0

0101000
-109 4 +116 4 *
Wi

0101100
-140 0 -108 0 +107 0 +115 0 *
Fa
0  1e-07 9 0

0101000
+106 0 *
Ve
1.5e-07
65 10 14
0 0

0101101
*
Ed
 1e-07 1 1 0
1  25 0 0 4
2  56 10 0 0 4
2  57 16 0 0 4
0

0101000
+109 4 -104 4 *
Ed
 1.5e-07 1 1 0
1  26 0 -5.5 2.5
2  58 10 2 -5.5 2.5
2  59 12 0 -5.5 2.5
0

0101000
+104 0 -139 0 *
Wi

0101100
-103 2 -102 0 +138 2 -108 2 *
Fa
0  1e-07 10 2

0101000
+101 0 *
Ve
1.50000007105427e-07
60 10 14
0 0

0101101
*
Ed
 1.5e-07 1 1 0
1  27 0 23.5 28.5
2  60 16 2 23.5 28.5
2  61 12 0 23.5 28.5
0

0101000
+99 0 -104 0 *
Ve
1e-07
75 10 22
0 0

0101101
*
Ed
 1e-07 1 1 0
1  28 0 0 17
2  62 17 0 0 17
2  63 12 0 0 17
0

0101000
+97 0 -99 0 *
Ed
 1e-07 1 1 0
1  29 0 0 16
2  64 12 0 0 16
2  65 13 0 0 16
0

0101000
+137 0 -97 0 *
Wi

0101100
+102 0 +98 0 +96 0 +95 0 +136 0 *
Fa
0  1e-07 12 0

0101000
+94 0 *
Ve
1e-07
75 40 22
0 0

0101101
*
Ed
 1e-07 1 1 0
1  30 0 0 30
2  66 17 0 0 30
2  67 13 0 0 30
0

0101000
+92 0 -97 0 *
Ed
 1e-07 1 1 0
1  31 0 0 16
2  68 14 0 0 16
2  69 13 0 0 16
0

0101000
+135 0 -92 0 *
Wi

0101100
+134 0 -91 0 -90 0 +95 0 *
Fa
0  1e-07 13 0

0101000
+89 0 *
Ve
1.5e-07
65 40 14
0 0

0101101
*
Ed
 1.5e-07 1 1 0
1  32 0 -5.5 2.5
2  70 10 2 -5.5 2.5
2  71 14 0 -5.5 2.5
0

0101000
+87 0 -133 0 *
Ve
1.50000007105427e-07
60 40 14
0 0

0101101
*
Ed
 1.5e-07 1 1 0
1  33 0 23.5 28.5
2  72 16 2 23.5 28.5
2  73 14 0 23.5 28.5
0

0101000
+85 0 -87 0 *
Ed
 1e-07 1 1 0
1  34 0 0 17
2  74 17 0 0 17
2  75 14 0 0 17
0

0101000
+92 0 -85 0 *
Wi

0101100
+86 0 +84 0 +83 0 +90 0 +132 0 *
Fa
0  1e-07 14 0

0101000
+82 0 *
Ve
1e-07
65 44 14
0 0

0101101
*
Ed
 1e-07 1 1 0
1  25 0 34 38
2  56 10 0 34 38
2  57 16 0 34 38
0

0101000
+87 4 -80 4 *
Ed
 1e-07 1 1 0
1  35 0 0 8
2  76 10 0 0 8
2  77 15 0 0 8
0

0101000
-80 4 +131 4 *
Wi

0101100
-79 2 +78 2 +130 2 +86 0 *
Fa
0  1e-07 10 2

0101000
+77 0 *
Ed
 1e-07 1 1 0
1  36 0 0 55
2  78 15 0 0 55
2  79 16 0 0 55
0

0101000
-80 4 +114 4 *
Wi

0101100
-129 0 -78 0 +75 0 +112 0 *
Fa
0  1e-07 15 0

0101000
+74 0 *
Ed
 1.5e-07 1 1 0
1  37 0 -13 17
2  80 16 2 -13 17
2  81 17 0 -13 17
0

0101000
+99 0 -85 0 *
Wi

0101100
-75 2 +79 2 -113 2 +84 0 +107 2 +72 0 +103 2 -98 0 *
Ve
1e-07
55 11 14
0 0

0101101
*
Ve
1e-07
20 11 14
0 0

0101101
*
Ed
 1e-07 1 1 0
1  38 0 0 35
2  82 18 0 0 35
2  83 19 0 0 35
2  84 16 6 0 35
0

0101000
-70 7 +69 7 *
Ve
1e-07
55 39 14
0 0

0101101
*
Ed
 1e-07 1 1 0
1  39 0 0 28
2  85 20 0 0 28
2  86 19 0 0 28
2  87 16 6 0 28
0

0101000
-67 7 +70 7 *
Ve
1e-07
20 39 14
0 0

0101101
*
Ed
 1e-07 1 1 0
1  40 0 0 35
2  88 21 0 0 35
2  89 19 0 0 35
2  90 16 6 0 35
0

0101000
-67 7 +65 7 *
Ve
1e-07
20 16 14
0 0

0101101
*
Ed
 1e-07 1 1 0
1  41 0 5 28
2  91 22 0 5 28
2  92 19 0 5 28
2  93 16 6 5 28
0

0101000
+63 7 -65 7 *
Ve
1e-07
12 16 14
0 0

0101101
*
Ed
 1e-07 1 1 0
1  42 0 0 8
2  94 23 0 0 8
2  95 24 0 0 8
2  96 16 9 0 8
0

0101000
-63 10 +61 10 *
Ve
1e-07
12 8 14
0 0

0101101
*
Ed
 1e-07 1 1 0
1  43 0 0 8
2  97 23 0 0 8
2  98 25 0 0 8
2  99 16 9 0 8
0

0101000
-61 10 +59 10 *
Ve
1e-07
20 8 14
0 0

0101101
*
Ed
 1e-07 1 1 0
1  44 0 0 8
2  100 23 0 0 8
2  101 26 0 0 8
2  102 16 9 0 8
0

0101000
-57 10 +59 10 *
Ed
 1e-07 1 1 0
1  45 0 0 3
2  103 27 0 0 3
2  104 23 0 0 3
2  105 16 9 0 3
0

0101000
+57 10 -69 10 *
Wi

0101100
-68 5 -66 5 +64 5 +62 5 +60 8 +58 8 -56 8 -55 8 *
Fa
0  1e-07 16 2

0101000
+71 0 +54 0 *
Wi

0101100
-83 0 +72 0 +96 0 +91 0 *
Fa
0  1e-07 17 0

0101000
+52 0 *
Ve
1e-07
55 11 22
0 0

0101101
*
Ed
 1e-07 1 1 0
1  46 0 0 8
2  106 20 0 0 8
2  107 18 0 0 8
0

0101000
-50 7 +70 7 *
Ve
1e-07
20 11 22
0 0

0101101
*
Ed
 1e-07 1 1 0
1  47 0 0 35
2  108 18 0 0 35
0

0101000
-50 7 +48 7 *
Ve
1e-07
20 11 16
0 0

0101101
*
Ed
 1e-07 1 1 0
1  48 0 0 2
2  109 22 0 0 2
2  110 18 0 0 2
2  111 27 11 0 2
0

0101000
+69 7 -46 7 *
Ed
 1e-07 1 1 0
1  48 0 2 8
2  109 22 0 2 8
2  110 18 0 2 8
0

0101000
+46 7 -48 7 *
Wi

0101100
-68 5 -49 5 +47 5 +45 5 +44 5 *
Fa
0  1e-07 18 5

0101000
+43 0 *
Ve
1e-07
55 39 22
0 0

0101101
*
Ed
 1e-07 1 1 0
1  49 0 0 28
2  112 20 0 0 28
0

0101000
-41 7 +50 7 *
Ed
 1e-07 1 1 0
1  50 0 0 8
2  113 20 0 0 8
2  114 21 0 0 8
0

0101000
-41 7 +67 7 *
Wi

0101100
-49 0 -40 0 +39 0 +66 0 *
Fa
0  1e-07 20 0

0101000
+38 0 *
Ve
1e-07
20 39 22
0 0

0101101
*
Ed
 1e-07 1 1 0
1  51 0 0 35
2  115 21 0 0 35
0

0101000
-41 7 +36 7 *
Ed
 1e-07 1 1 0
1  52 0 0 8
2  116 22 0 0 8
2  117 21 0 0 8
0

0101000
-36 7 +65 7 *
Wi

0101100
-64 0 -39 0 +35 0 +34 0 *
Fa
0  1e-07 21 0

0101000
+33 0 *
Ed
 1e-07 1 1 0
1  53 0 0 28
2  118 22 0 0 28
0

0101000
-36 7 +48 7 *
Ve
1e-07
20 16 16
0 0

0101101
*
Ed
 1e-07 1 1 0
1  54 0 0 2
2  119 27 0 0 2
2  120 24 0 0 2
2  121 22 12 0 2
0

0101000
-30 10 +63 10 *
Ed
 1e-07 1 1 0
1  55 0 3 8
2  122 27 0 3 8
2  123 28 0 3 8
2  124 22 12 3 8
0

0101000
+46 10 -30 10 *
Wi

0101100
-44 5 -31 5 +34 5 +62 5 -29 8 +28 8 *
Fa
0  1e-07 22 5

0101000
+27 0 *
Ve
1e-07
12 16 16
0 0

0101101
*
Ed
 1e-07 1 1 0
1  56 0 0 8
2  125 24 0 0 8
2  126 28 0 0 8
0

0101000
-30 10 +25 10 *
Ed
 1e-07 1 1 0
1  57 0 0 2
2  127 24 0 0 2
2  128 25 0 0 2
0

0101000
-25 10 +61 10 *
Wi

0101100
-60 0 -29 0 +24 0 +23 0 *
Fa
0  1e-07 24 0

0101000
+22 0 *
Ve
1e-07
12 8 16
0 0

0101101
*
Ed
 1e-07 1 1 0
1  58 0 0 2
2  129 25 0 0 2
2  130 26 0 0 2
0

0101000
-20 10 +59 10 *
Ed
 1e-07 1 1 0
1  59 0 0 8
2  131 28 0 0 8
2  132 25 0 0 8
0

0101000
-25 10 +20 10 *
Wi

0101100
-19 0 -18 0 +23 0 +58 0 *
Fa
0  1e-07 25 0

0101000
+17 0 *
Ve
1e-07
20 8 16
0 0

0101101
*
Ed
 1e-07 1 1 0
1  60 0 0 2
2  133 27 0 0 2
2  134 26 0 0 2
0

0101000
-15 10 +57 10 *
Ed
 1e-07 1 1 0
1  61 0 0 8
2  135 28 0 0 8
2  136 26 0 0 8
0

0101000
-15 10 +20 10 *
Wi

0101100
-56 0 -14 0 +13 0 +19 0 *
Fa
0  1e-07 26 0

0101000
+12 0 *
Ed
 1e-07 1 1 0
1  55 0 0 3
2  122 27 0 0 3
2  123 28 0 0 3
0

0101000
+15 10 -46 10 *
Wi

0101100
-10 8 +45 5 +55 8 -14 8 *
Fa
0  1e-07 27 8

0101000
+9 0 *
Wi

0101100
-31 0 -35 0 +40 0 +47 0 *
Fa
0  1e-07 29 0

0101000
+7 0 *
Wi

0101100
-18 8 -24 8 +10 8 +28 8 +13 8 *
Fa
0  1e-07 28 8

0101000
+5 0 *
Sh

0101100
-156 1 -149 1 +127 0 +122 1 -119 1 +117 1 -110 2 -105 2 +100 0 +93 0 
-88 0 -81 0 +76 0 +73 2 +53 0 -51 0 -42 0 +37 5 +32 5 -26 0 
+21 8 -16 8 -11 8 +8 0 +6 5 +4 0 *
So

0100000
+3 0 *
Co

1100000
+2 0 *

+1 0 